<?xml version="1.0" encoding="utf-8"?>
<!-- Generator: Adobe Illustrator 20.1.0, SVG Export Plug-In . SVG Version: 6.00 Build 0)  -->
<svg version="1.1" id="Layer_1" xmlns="http://www.w3.org/2000/svg" xmlns:xlink="http://www.w3.org/1999/xlink" x="0px" y="0px"
	 viewBox="0 0 300 300" style="enable-background:new 0 0 300 300;" xml:space="preserve">
<style type="text/css">
	.st0{fill:none;stroke:#000000;stroke-width:2;stroke-miterlimit:10;}
	.st1{fill:none;stroke:#FFFFFF;stroke-width:2;stroke-miterlimit:10;}
</style>
<line class="st0" x1="0" y1="1.2" x2="300" y2="1.2"/>
<line class="st1" x1="0" y1="11.2" x2="300" y2="11.2"/>
<line class="st0" x1="0" y1="21.2" x2="300" y2="21.2"/>
<line class="st1" x1="0" y1="31.2" x2="300" y2="31.2"/>
<line class="st0" x1="0" y1="41.2" x2="300" y2="41.2"/>
<line class="st1" x1="0" y1="51.2" x2="300" y2="51.2"/>
<line class="st0" x1="0" y1="61.2" x2="300" y2="61.2"/>
<line class="st1" x1="0" y1="71.2" x2="300" y2="71.2"/>
<line class="st0" x1="0" y1="81.2" x2="300" y2="81.2"/>
<line class="st1" x1="0" y1="91.2" x2="300" y2="91.2"/>
<line class="st0" x1="0" y1="101.2" x2="300" y2="101.2"/>
<line class="st1" x1="0" y1="111.2" x2="300" y2="111.2"/>
<line class="st0" x1="0" y1="121.2" x2="300" y2="121.2"/>
<line class="st1" x1="0" y1="131.2" x2="300" y2="131.2"/>
<line class="st0" x1="0" y1="141.2" x2="300" y2="141.2"/>
<line class="st1" x1="0" y1="151.2" x2="300" y2="151.2"/>
<line class="st0" x1="0" y1="161.2" x2="300" y2="161.2"/>
<line class="st1" x1="0" y1="171.2" x2="300" y2="171.2"/>
<line class="st0" x1="0" y1="181.2" x2="300" y2="181.2"/>
<line class="st1" x1="0" y1="191.2" x2="300" y2="191.2"/>
<line class="st0" x1="0" y1="201.2" x2="300" y2="201.2"/>
<line class="st1" x1="0" y1="211.2" x2="300" y2="211.2"/>
<line class="st0" x1="0" y1="221.2" x2="300" y2="221.2"/>
<line class="st1" x1="0" y1="231.2" x2="300" y2="231.2"/>
<line class="st0" x1="0" y1="241.2" x2="300" y2="241.2"/>
<line class="st1" x1="0" y1="251.2" x2="300" y2="251.2"/>
<line class="st0" x1="0" y1="261.2" x2="300" y2="261.2"/>
<line class="st1" x1="0" y1="271.2" x2="300" y2="271.2"/>
<line class="st0" x1="0" y1="281.2" x2="300" y2="281.2"/>
<line class="st1" x1="0" y1="291.2" x2="300" y2="291.2"/>
</svg>
